<svg width="470" height="187" viewBox="0 0 470 187" fill="none" xmlns="http://www.w3.org/2000/svg">
<path fill-rule="evenodd" clip-rule="evenodd" d="M132.278 68.4431L50.2323 90.924L123.046 46.4641C123.612 46.1185 124.02 45.5619 124.182 44.9186C124.343 44.2743 124.244 43.5956 123.906 43.0307L116.045 29.9008C112.905 24.6567 106.569 22.1291 100.635 23.7548C99.3851 24.0974 98.186 24.6166 97.0697 25.2976L28.7047 67.0408C25.5427 68.9712 23.3038 72.0272 22.3981 75.6447C21.4934 79.262 22.0361 82.993 23.9251 86.1484L31.6045 98.9759L46.6425 156.367C48.5794 163.759 56.1587 168.127 63.5375 166.105L92.4349 158.187C93.7631 157.823 94.5571 156.45 94.2085 155.12C93.8599 153.789 92.5008 153.006 91.1725 153.37L62.2761 161.287C57.5482 162.583 52.693 159.785 51.4521 155.049L42.8627 122.268L55.1827 118.893L55.1884 118.891L55.1931 118.89L74.0258 113.729L74.0315 113.728L74.0371 113.726L92.8699 108.566L92.8755 108.565L92.8812 108.563L111.714 103.403L111.72 103.401L111.724 103.4L137.043 96.4626L145.632 129.243C146.873 133.979 144.036 138.885 139.308 140.18L110.411 148.098C109.084 148.462 108.289 149.835 108.637 151.166C108.986 152.496 110.346 153.28 111.673 152.916L140.571 144.998C147.951 142.976 152.378 135.317 150.442 127.925L135.314 70.1929C134.965 68.8624 133.606 68.0791 132.278 68.4431V68.4431ZM95.7803 102.605L101.353 82.0801L114.643 78.4387L109.071 98.9635L95.7803 102.605ZM76.9362 107.769L82.5094 87.2434L95.7988 83.6021L90.2266 104.127L76.9362 107.769ZM58.0931 112.932L63.6653 92.4068L76.9557 88.7652L71.3826 109.29L58.0931 112.932ZM58.8632 79.2981L37.4401 67.5255L49.2853 60.2933C49.41 60.4003 49.5477 60.4957 49.6983 60.5785L71.1214 72.3511L59.2762 79.5833C59.1516 79.4762 59.0126 79.3802 58.8632 79.2981ZM83.1452 40.156L104.568 51.9286L92.7231 59.1608C92.5984 59.0538 92.4604 58.9575 92.3101 58.8756L70.887 47.1031L82.7322 39.8708C82.8569 39.9779 82.9946 40.0732 83.1452 40.156ZM66.4214 50.3679L87.8442 62.1395L75.9993 69.3726C75.8746 69.2656 75.7366 69.1693 75.5863 69.0875L54.1632 57.3149L66.0084 50.0827C66.1338 50.1885 66.2718 50.2848 66.4214 50.3679ZM99.6209 29.5584C100.334 29.1228 101.1 28.791 101.898 28.5725C105.703 27.5297 109.765 29.1478 111.777 32.5075L118.362 43.506L109.447 48.949C109.321 48.8422 109.184 48.7469 109.033 48.6641L87.611 36.8922L99.6209 29.5584ZM27.2203 76.8144C27.8004 74.4943 29.2336 72.5364 31.2559 71.3015L32.5612 70.5042C32.6869 70.6109 32.8249 70.7073 32.9743 70.7894L54.3974 82.5619L34.7789 94.5411L28.1939 83.5426C26.9856 81.5249 26.6404 79.1355 27.2203 76.8144ZM36.9558 99.7253L58.1117 93.9285L52.5395 114.453L41.6004 117.451L36.9558 99.7253ZM114.624 97.4418L120.196 76.917L131.136 73.9196L135.78 91.645L114.624 97.4418Z" fill="white"/>
<path fill-rule="evenodd" clip-rule="evenodd" d="M112.013 125.355C111.787 124.494 111.12 123.824 110.264 123.598L85.9351 117.169C85.0784 116.943 84.1616 117.194 83.5303 117.828C82.899 118.462 82.6489 119.383 82.8745 120.244L89.2773 144.68C89.5027 145.54 90.1694 146.209 91.0261 146.435C91.4545 146.549 91.8981 146.543 92.3133 146.429C92.7285 146.316 93.1153 146.094 93.4308 145.776L111.357 127.77C111.988 127.136 112.238 126.216 112.013 125.355ZM92.9937 139.19L88.7772 123.098L104.798 127.332L92.9937 139.19Z" fill="white"/>
<path fill-rule="evenodd" clip-rule="evenodd" d="M100.94 150.889C99.616 151.252 98.8195 152.63 99.167 153.956C99.5145 155.282 100.878 156.068 102.202 155.705C103.527 155.342 104.323 153.965 103.975 152.638C103.628 151.312 102.265 150.526 100.94 150.889Z" fill="white"/>
<path d="M191.558 65.67C191.558 65.11 191.208 64.48 190.508 63.85C189.738 63.29 189.038 62.94 188.408 62.94C187.218 62.94 186.378 63.29 185.888 63.92C185.328 64.62 185.048 65.39 185.048 66.3V67.77C185.048 68.33 185.118 68.82 185.118 69.24C185.118 70.15 185.188 70.99 185.188 71.69V74.14C185.188 77.43 185.188 80.65 185.328 83.87C185.328 87.16 185.398 90.45 185.398 93.74C185.398 94.86 185.328 95.91 185.328 97.03C185.328 98.15 185.258 99.41 185.188 100.95C182.038 98.57 179.518 96.05 177.628 93.39C175.668 90.73 173.988 88 172.518 85.06C172.168 84.43 171.818 83.59 171.398 82.61C170.978 81.63 170.488 80.51 169.998 79.18C169.438 77.85 168.948 76.38 168.388 74.7C167.758 73.09 167.058 71.27 166.358 69.31L165.658 66.93C165.378 66.23 165.098 65.46 164.748 64.69C163.978 63.15 162.578 62.31 160.618 62.31C159.778 62.31 159.148 62.59 158.588 63.01C157.958 63.57 157.678 64.2 157.678 64.97C157.678 65.32 157.678 65.67 157.748 65.95C157.748 66.3 157.678 66.65 157.678 66.93C157.118 71.27 156.698 75.54 156.488 79.74C156.278 84.01 156.208 88.28 156.208 92.62C156.208 97.87 156.278 101.58 156.418 103.82C156.418 104.24 156.418 104.73 156.488 105.15C156.488 105.64 156.628 106.06 156.768 106.48C156.908 106.97 157.188 107.39 157.538 107.67C157.818 107.95 158.308 108.09 159.008 108.09C159.708 108.09 160.408 107.95 161.248 107.53C162.018 107.25 162.438 106.76 162.438 106.06C162.438 105.57 162.368 105.08 162.298 104.59L162.018 103.26C161.878 102.91 161.808 102.56 161.808 102.21L161.528 101.09C161.388 100.39 161.318 99.69 161.318 98.99C161.248 98.15 161.248 96.75 161.248 94.79C161.178 92.97 161.178 90.59 161.178 87.65C161.178 85.34 161.178 82.89 161.248 80.3C161.248 77.78 161.388 74.63 161.668 70.85C163.068 75.54 164.538 79.81 166.148 83.59C167.758 87.44 169.718 91.01 171.958 94.3C172.798 95.56 173.708 96.89 174.828 98.15C175.878 99.41 176.998 100.67 178.188 101.79C179.378 102.91 180.568 103.96 181.828 104.87C182.948 105.85 184.138 106.62 185.258 107.18C185.608 107.39 186.028 107.46 186.448 107.46C187.638 107.46 188.478 106.97 188.968 105.92C189.248 105.22 189.528 104.38 189.808 103.4L190.228 100.39L190.368 97.24V86.6C190.368 84.01 190.368 81.35 190.438 78.69V74.21C190.438 72.67 190.438 71.2 190.578 69.73C190.578 69.38 190.648 69.03 190.788 68.68L191.068 67.63C191.208 67.21 191.348 66.86 191.418 66.65C191.488 66.23 191.558 65.88 191.558 65.67ZM227.818 103.4C227.818 103.12 227.608 102.77 227.258 102.35C226.838 101.93 226.348 101.72 225.788 101.72C225.088 101.72 224.458 101.93 223.898 102.28C223.268 102.7 222.638 103.12 221.938 103.54C221.168 103.96 220.398 104.38 219.558 104.73C218.718 105.15 217.808 105.43 216.968 105.64C216.058 105.92 215.148 105.99 214.308 105.99C212.768 105.99 211.368 105.71 210.178 105.15C208.918 104.66 207.798 103.96 206.958 102.98C206.048 102.07 205.418 100.95 205.068 99.55C204.648 98.15 204.508 96.75 204.508 95.28C205.628 95.98 206.958 96.47 208.498 96.89C210.038 97.31 211.508 97.52 212.908 97.52C214.868 97.52 216.758 97.31 218.578 96.75C220.398 96.19 221.938 95.49 223.338 94.58C224.668 93.74 225.718 92.69 226.558 91.5C227.398 90.38 227.818 89.12 227.818 87.79C227.818 85.97 227.258 84.29 226.138 82.89C224.948 81.56 223.478 80.44 221.728 79.46C220.328 78.76 218.648 78.2 216.828 77.78C214.938 77.43 213.188 77.22 211.578 77.22C209.968 77.22 208.428 77.78 206.888 78.9C205.348 80.02 203.948 81.49 202.758 83.24C201.498 85.06 200.448 87.09 199.678 89.33C198.908 91.57 198.558 93.88 198.558 96.12C198.558 97.8 198.838 99.48 199.398 101.09C199.958 102.77 200.868 104.17 202.058 105.43C203.248 106.69 204.788 107.74 206.678 108.51C208.498 109.21 210.668 109.63 213.258 109.63C214.798 109.63 216.408 109.49 218.158 109.21C219.838 108.93 221.378 108.44 222.778 107.88C224.178 107.32 225.438 106.69 226.418 105.92C227.328 105.22 227.818 104.38 227.818 103.4ZM222.778 88C222.778 88.84 222.428 89.61 221.868 90.31C221.238 91.01 220.468 91.64 219.558 92.13C218.578 92.62 217.458 92.97 216.338 93.25C215.148 93.53 214.028 93.67 212.908 93.67C210.948 93.67 209.268 93.39 207.938 92.69C206.538 92.13 205.698 91.22 205.278 90.03C205.558 88.91 205.978 87.86 206.538 86.81C207.098 85.83 207.728 84.92 208.498 84.15C209.198 83.38 209.968 82.75 210.878 82.26C211.718 81.84 212.628 81.56 213.608 81.56C214.518 81.56 215.568 81.7 216.758 81.98C217.948 82.26 218.998 82.68 219.838 83.17C220.678 83.73 221.378 84.36 221.938 85.13C222.498 85.97 222.778 86.95 222.778 88ZM257.011 104.8C257.011 104.45 256.801 104.1 256.521 103.75C256.241 103.47 255.821 103.33 255.331 103.33C254.701 103.33 254.281 103.47 254.001 103.75C253.721 104.03 253.511 104.38 253.371 104.73C253.231 104.94 253.161 105.15 253.021 105.29C252.881 105.43 252.811 105.57 252.811 105.57C252.251 106.06 251.551 106.27 250.711 106.27C249.451 106.27 248.471 105.71 247.701 104.59C246.861 103.47 246.511 101.58 246.511 98.92C246.511 96.75 246.511 94.51 246.651 92.27C246.721 90.1 246.861 87.72 247.001 85.2C247.351 85.2 247.841 85.13 248.401 85.06L249.941 84.92C251.201 84.78 252.321 84.57 253.301 84.29C254.141 84.08 254.841 83.8 255.541 83.45C256.241 83.17 256.591 82.68 256.591 82.12C256.591 81.7 256.381 81.42 256.101 81.28C255.681 81.14 255.331 81.07 254.981 80.93C254.771 80.93 254.491 80.93 254.141 80.79L252.741 80.65H247.281C247.281 80.37 247.351 79.95 247.421 79.32L247.701 77.36L247.981 75.26C247.981 74.56 248.051 74 248.191 73.51L248.401 72.25C248.471 71.9 248.541 71.48 248.541 71.06C248.541 70.78 248.331 70.5 247.981 70.15C247.631 69.87 247.211 69.59 246.791 69.31C246.301 69.1 245.811 68.89 245.321 68.68C244.761 68.54 244.271 68.4 243.991 68.4C243.431 68.4 242.941 68.47 242.521 68.61C241.961 68.75 241.611 68.96 241.401 69.17C241.331 69.24 241.261 69.38 241.191 69.59C241.051 69.8 241.051 70.01 241.051 70.22C241.051 70.5 240.981 71.13 240.981 72.11C240.981 73.09 240.911 74.21 240.911 75.33C240.841 76.45 240.841 77.57 240.841 78.55C240.771 79.67 240.771 80.37 240.771 80.72C240.491 80.72 240.001 80.79 239.441 80.79L237.621 80.93C236.921 80.93 236.291 81 235.661 81C235.031 81.07 234.541 81.07 234.191 81.07C233.491 81.07 233.001 81.21 232.581 81.35C232.161 81.56 232.021 81.91 232.021 82.4C232.021 83.38 232.231 84.22 232.791 85.06C233.281 85.9 233.981 86.32 234.961 86.32C235.661 86.32 236.501 86.25 237.481 86.11L240.631 85.83C240.561 88.14 240.561 90.24 240.561 92.2C240.491 94.16 240.491 96.12 240.491 98.01C240.491 99.41 240.561 100.74 240.841 102.07C241.051 103.47 241.471 104.73 242.101 105.85C242.731 106.97 243.641 107.81 244.761 108.51C245.811 109.21 247.211 109.56 249.031 109.56C249.731 109.56 250.571 109.42 251.621 109.21C252.601 109 253.511 108.65 254.351 108.23C254.981 107.88 255.611 107.39 256.171 106.69C256.731 106.13 257.011 105.5 257.011 104.8ZM305.903 83.8C305.903 81.14 305.763 78.41 305.623 75.75C305.343 73.09 305.133 70.36 304.853 67.63V66.86C304.853 66.44 304.853 65.95 304.923 65.53C304.923 65.11 304.993 64.69 304.993 64.2C304.993 63.22 304.643 62.59 304.013 62.24C303.313 61.89 302.613 61.68 301.773 61.68C301.003 61.68 300.373 61.96 299.883 62.45C299.323 63.01 299.043 63.57 299.043 64.2C299.043 65.32 299.113 66.37 299.393 67.35C299.603 68.4 299.813 69.45 299.953 70.5C300.233 72.74 300.513 74.98 300.863 77.15C301.143 79.39 301.283 81.63 301.283 83.87C301.283 86.25 301.143 88.49 300.863 90.73C300.583 93.04 300.233 95.07 299.743 96.82C299.253 98.64 298.623 100.04 297.923 101.09C297.153 102.21 296.313 102.77 295.333 102.77C294.353 102.77 293.373 102.07 292.463 100.53C291.483 98.99 290.713 97.1 290.013 94.86C289.593 93.67 289.243 92.41 288.963 91.15C288.613 89.89 288.333 88.7 288.123 87.58C287.843 86.46 287.703 85.48 287.563 84.57C287.353 83.73 287.213 83.17 287.213 82.75C287.143 82.19 287.143 81.63 287.143 81C287.073 80.44 287.073 79.81 287.073 79.25C287.073 78.83 287.073 78.27 287.143 77.71C287.143 77.15 287.213 76.59 287.213 76.03C287.213 75.12 287.003 74.35 286.653 73.72C286.233 73.16 285.463 72.81 284.343 72.81C283.573 72.81 282.943 73.09 282.383 73.65C281.823 74.28 281.613 74.91 281.613 75.54C281.613 75.82 281.613 76.03 281.683 76.17C281.683 76.31 281.753 76.52 281.893 76.66C281.893 76.94 281.963 77.15 281.963 77.29C281.963 77.57 282.033 77.78 282.033 77.99C282.033 78.97 281.823 80.51 281.403 82.61L280.563 86.81L279.723 90.59C279.583 91.29 279.303 92.2 279.023 93.46C278.673 94.72 278.253 96.05 277.833 97.31C277.343 98.57 276.783 99.76 276.083 100.81C275.313 101.93 274.403 102.49 273.283 102.49C272.863 102.49 272.513 102.28 272.093 101.79C271.673 101.37 271.253 100.74 270.833 99.97C270.413 99.2 269.993 98.29 269.643 97.24C269.223 96.26 268.873 95.14 268.593 93.95C268.103 91.99 267.753 89.96 267.613 87.93C267.403 85.97 267.333 84.01 267.333 81.98C267.333 80.72 267.403 79.25 267.543 77.57C267.613 75.96 267.823 74.35 268.103 72.74C268.243 71.83 268.383 70.92 268.663 70.08C268.803 69.24 269.083 68.54 269.363 67.84C269.433 67.56 269.573 67.21 269.783 66.93L270.763 65.46C270.903 65.18 270.973 64.97 270.973 64.69C270.973 64.27 270.623 63.85 270.063 63.36C269.503 62.94 268.733 62.66 267.753 62.66C267.123 62.66 266.563 62.8 266.003 63.01C265.443 63.29 265.093 63.64 264.883 64.06C264.463 64.76 264.183 65.81 263.903 67.35C263.623 68.96 263.343 70.64 263.203 72.46C262.993 74.28 262.853 76.03 262.783 77.71C262.643 79.46 262.643 80.72 262.643 81.56C262.643 82.68 262.643 84.08 262.783 85.76C262.853 87.51 263.063 89.33 263.343 91.29C263.553 93.25 263.903 95.28 264.463 97.24C264.953 99.27 265.583 101.09 266.423 102.63C267.263 104.31 268.243 105.64 269.503 106.62C270.623 107.67 272.023 108.16 273.703 108.16C275.243 108.16 276.573 107.67 277.693 106.69C278.813 105.71 279.723 104.45 280.563 102.84C281.403 101.3 282.103 99.48 282.663 97.45C283.223 95.42 283.713 93.32 284.133 91.22C284.693 94.23 285.393 96.75 286.163 98.85C286.863 100.95 287.703 102.7 288.543 104.03C289.383 105.36 290.363 106.34 291.343 106.9C292.323 107.53 293.303 107.81 294.423 107.81C295.403 107.81 296.383 107.6 297.503 107.18C298.483 106.76 299.393 106.2 300.233 105.36C301.633 103.96 302.683 102.28 303.523 100.39C304.363 98.57 304.993 96.33 305.413 93.67C305.483 92.97 305.623 91.78 305.763 90.03C305.833 88.35 305.903 86.32 305.903 83.8ZM344.003 107.04V104.38C343.933 103.54 343.933 102.63 343.933 101.65C343.933 99.97 343.863 98.29 343.863 96.61C343.723 95 343.723 93.32 343.723 91.64C343.723 89.96 343.373 88.28 342.813 86.6C342.183 84.92 341.343 83.45 340.223 82.05C339.033 80.79 337.633 79.67 336.023 78.83C334.343 78.06 332.453 77.64 330.353 77.64C329.723 77.64 328.953 77.71 328.113 77.85C327.203 77.99 326.293 78.13 325.313 78.34C324.333 78.62 323.283 78.9 322.303 79.18C321.323 79.53 320.413 79.95 319.573 80.37C318.033 81.21 316.773 82.05 315.723 83.03C314.603 84.08 314.113 85.13 314.113 86.11C314.113 86.81 314.323 87.44 314.883 88C315.373 88.56 316.003 88.84 316.773 88.84C317.543 88.84 318.313 88.56 319.013 88L320.063 86.95C320.343 86.67 320.623 86.32 321.043 85.9C321.463 85.55 321.953 85.13 322.583 84.71C323.143 84.29 323.843 83.87 324.613 83.45C325.313 83.03 326.153 82.75 327.063 82.47C327.903 82.19 328.813 82.05 329.793 82.05C331.053 82.05 332.173 82.33 333.153 82.75C334.133 83.31 334.973 83.94 335.673 84.71C336.373 85.48 336.863 86.32 337.283 87.3C337.703 88.28 337.913 89.26 338.053 90.24C336.583 90.38 334.973 90.52 333.223 90.66C331.403 90.87 329.513 91.15 327.693 91.43C325.803 91.85 323.983 92.27 322.233 92.83C320.413 93.39 318.873 94.02 317.543 94.79C316.143 95.56 315.023 96.47 314.183 97.45C313.343 98.57 312.923 99.76 312.923 101.09C312.923 102.35 313.203 103.4 313.903 104.31C314.603 105.29 315.513 106.13 316.773 106.83C317.963 107.53 319.363 108.02 321.043 108.37C322.583 108.72 324.333 108.86 326.293 108.86C327.833 108.86 329.653 108.72 331.683 108.37C333.713 108.02 335.743 107.25 337.703 106.06C337.703 107.32 337.703 108.23 337.843 108.65C337.913 109.14 338.123 109.56 338.473 109.91C338.963 110.47 339.803 110.82 341.063 110.82C342.043 110.82 342.813 110.47 343.303 109.91C343.723 109.35 344.003 108.44 344.003 107.04ZM338.053 94.09L337.843 100.6C336.583 102.14 334.903 103.33 332.803 104.17C330.703 105.01 328.603 105.43 326.573 105.43C325.803 105.43 324.963 105.36 324.123 105.15C323.283 104.94 322.443 104.59 321.743 104.17C320.973 103.75 320.343 103.26 319.853 102.7C319.293 102.14 319.083 101.51 319.083 100.81C319.083 99.48 319.783 98.36 321.183 97.45C322.583 96.61 324.263 95.98 326.223 95.49C328.183 95 330.283 94.65 332.523 94.44C334.623 94.3 336.513 94.16 338.053 94.09ZM374.589 104.8C374.589 104.45 374.379 104.1 374.099 103.75C373.819 103.47 373.399 103.33 372.909 103.33C372.279 103.33 371.859 103.47 371.579 103.75C371.299 104.03 371.089 104.38 370.949 104.73C370.809 104.94 370.739 105.15 370.599 105.29C370.459 105.43 370.389 105.57 370.389 105.57C369.829 106.06 369.129 106.27 368.289 106.27C367.029 106.27 366.049 105.71 365.279 104.59C364.439 103.47 364.089 101.58 364.089 98.92C364.089 96.75 364.089 94.51 364.229 92.27C364.299 90.1 364.439 87.72 364.579 85.2C364.929 85.2 365.419 85.13 365.979 85.06L367.519 84.92C368.779 84.78 369.899 84.57 370.879 84.29C371.719 84.08 372.419 83.8 373.119 83.45C373.819 83.17 374.169 82.68 374.169 82.12C374.169 81.7 373.959 81.42 373.679 81.28C373.259 81.14 372.909 81.07 372.559 80.93C372.349 80.93 372.069 80.93 371.719 80.79L370.319 80.65H364.859C364.859 80.37 364.929 79.95 364.999 79.32L365.279 77.36L365.559 75.26C365.559 74.56 365.629 74 365.769 73.51L365.979 72.25C366.049 71.9 366.119 71.48 366.119 71.06C366.119 70.78 365.909 70.5 365.559 70.15C365.209 69.87 364.789 69.59 364.369 69.31C363.879 69.1 363.389 68.89 362.899 68.68C362.339 68.54 361.849 68.4 361.569 68.4C361.009 68.4 360.519 68.47 360.099 68.61C359.539 68.75 359.189 68.96 358.979 69.17C358.909 69.24 358.839 69.38 358.769 69.59C358.629 69.8 358.629 70.01 358.629 70.22C358.629 70.5 358.559 71.13 358.559 72.11C358.559 73.09 358.489 74.21 358.489 75.33C358.419 76.45 358.419 77.57 358.419 78.55C358.349 79.67 358.349 80.37 358.349 80.72C358.069 80.72 357.579 80.79 357.019 80.79L355.199 80.93C354.499 80.93 353.869 81 353.239 81C352.609 81.07 352.119 81.07 351.769 81.07C351.069 81.07 350.579 81.21 350.159 81.35C349.739 81.56 349.599 81.91 349.599 82.4C349.599 83.38 349.809 84.22 350.369 85.06C350.859 85.9 351.559 86.32 352.539 86.32C353.239 86.32 354.079 86.25 355.059 86.11L358.209 85.83C358.139 88.14 358.139 90.24 358.139 92.2C358.069 94.16 358.069 96.12 358.069 98.01C358.069 99.41 358.139 100.74 358.419 102.07C358.629 103.47 359.049 104.73 359.679 105.85C360.309 106.97 361.219 107.81 362.339 108.51C363.389 109.21 364.789 109.56 366.609 109.56C367.309 109.56 368.149 109.42 369.199 109.21C370.179 109 371.089 108.65 371.929 108.23C372.559 107.88 373.189 107.39 373.749 106.69C374.309 106.13 374.589 105.5 374.589 104.8ZM408.222 101.51C408.222 100.88 407.872 100.18 407.242 99.48C406.892 99.13 406.542 98.85 406.122 98.71C405.702 98.57 405.352 98.5 405.142 98.5C404.792 98.5 404.442 98.64 404.022 98.85C403.602 99.06 403.182 99.55 402.762 100.32C401.922 101.72 400.732 102.91 399.122 103.96C397.442 105.08 395.482 105.57 393.312 105.57C391.002 105.57 389.112 104.94 387.642 103.61C386.102 102.35 385.332 100.25 385.332 97.17C385.332 95.77 385.542 94.23 385.962 92.41C386.382 90.59 386.942 88.91 387.782 87.23C388.622 85.69 389.602 84.29 390.862 83.17C392.122 82.05 393.522 81.49 395.202 81.49C396.532 81.49 397.722 81.77 398.702 82.33C399.682 82.96 400.732 83.87 401.852 85.06C402.272 85.55 402.762 85.97 403.462 86.39C404.162 86.81 404.722 87.02 405.212 87.02C405.842 87.02 406.402 86.81 406.962 86.25C407.452 85.76 407.732 85.13 407.732 84.43C407.732 83.87 407.452 83.24 407.032 82.61C406.542 82.05 405.982 81.49 405.422 80.93C403.532 79.39 401.642 78.41 399.822 77.85C398.002 77.29 396.112 77.01 394.222 77.01C391.912 77.01 389.812 77.64 387.922 78.83C386.032 80.09 384.422 81.7 383.092 83.66C381.692 85.62 380.642 87.79 379.942 90.17C379.172 92.55 378.822 94.86 378.822 97.1C378.822 99.13 379.172 100.88 379.942 102.35C380.712 103.89 381.762 105.22 383.162 106.2C384.422 107.25 385.962 108.02 387.782 108.51C389.602 109 391.492 109.28 393.592 109.28C395.482 109.28 397.372 109.07 399.262 108.65C401.152 108.23 402.902 107.25 404.582 105.85C405.772 104.87 406.682 104.03 407.312 103.33C407.872 102.77 408.222 102.14 408.222 101.51ZM443.362 105.22V92.55C443.362 90.66 443.222 89.05 443.082 87.79C442.872 86.6 442.522 85.48 442.032 84.36C441.612 83.38 440.982 82.47 440.282 81.63C439.442 80.79 438.462 80.09 437.272 79.39C436.222 78.83 435.032 78.48 433.702 78.34C432.302 78.2 431.112 78.13 430.272 78.13C429.362 78.13 428.452 78.27 427.612 78.55C426.702 78.9 425.862 79.32 425.092 79.81C424.252 80.37 423.552 80.93 422.852 81.56C422.152 82.26 421.522 82.89 421.102 83.52L421.452 61.75C421.452 61.4 421.242 61.05 420.892 60.77C420.472 60.49 420.122 60.28 419.772 60C419.422 59.86 419.002 59.72 418.442 59.58C417.882 59.51 417.462 59.44 417.182 59.44C416.342 59.44 415.712 59.72 415.222 60.21C414.732 60.7 414.522 61.33 414.522 62.1C414.522 62.8 414.522 63.57 414.662 64.41C414.802 65.32 414.872 66.02 414.942 66.44L415.222 70.29C415.292 71.62 415.362 72.81 415.362 73.86V75.61L415.222 78.27V81.42L415.082 84.78L414.942 90.94C414.872 92.83 414.872 94.09 414.872 94.65C414.872 95.35 414.872 96.26 414.942 97.24V100.25L415.082 102.98V104.52C415.082 105.01 415.152 105.5 415.362 105.99C415.502 106.48 415.782 106.9 416.062 107.32C416.342 107.74 416.762 108.09 417.182 108.37C417.602 108.65 418.022 108.72 418.512 108.72C419.002 108.72 419.492 108.58 420.052 108.3C420.542 108.02 420.892 107.67 421.102 107.18C421.312 106.76 421.452 106.27 421.522 105.85C421.592 105.5 421.662 105.15 421.662 104.8C421.592 104.66 421.522 104.31 421.522 103.89L421.382 102.7C421.242 102.28 421.172 101.93 421.172 101.58C421.102 101.3 421.102 101.02 421.102 100.88V99.27C421.032 98.43 421.032 97.66 421.032 96.82C421.032 94.72 421.312 92.69 421.942 90.87C422.572 89.05 423.342 87.44 424.322 86.04C425.302 84.71 426.352 83.66 427.542 82.89C428.732 82.12 429.922 81.7 431.042 81.7C432.162 81.7 433.212 81.98 434.052 82.47C434.892 83.03 435.522 83.94 436.082 85.13C436.572 86.32 436.922 87.86 437.202 89.75C437.482 91.71 437.622 94.09 437.622 96.82V100.88L437.482 103.19C437.342 103.96 437.272 104.52 437.202 104.94C436.992 105.22 436.852 105.5 436.712 105.78C436.572 106.06 436.502 106.34 436.502 106.48C436.502 106.83 436.852 107.39 437.692 108.09C438.042 108.44 438.392 108.65 438.742 108.79C439.022 108.93 439.302 109 439.512 109C439.932 109 440.492 108.93 441.052 108.79C441.612 108.65 442.032 108.37 442.452 108.02C442.662 107.74 442.872 107.32 443.082 106.83C443.222 106.34 443.362 105.78 443.362 105.22Z" fill="white"/>
</svg>
