<svg width="867" height="222" viewBox="0 0 867 222" fill="none" xmlns="http://www.w3.org/2000/svg">
<path d="M265.823 68.7997C265.823 66.9797 265.473 65.2997 264.913 63.7597C264.213 62.2197 263.303 60.8897 262.113 59.7697C260.923 58.6497 259.523 57.7397 257.843 57.0397C256.163 56.4097 254.203 56.0597 252.103 56.0597C250.143 56.0597 248.113 56.5497 246.153 57.4597C244.053 58.4397 242.093 59.9097 240.133 62.0097V59.4897C240.063 58.9297 239.993 58.4397 239.993 58.0197C239.923 57.8097 239.853 57.5997 239.853 57.4597L239.503 56.8997C239.153 56.5497 238.803 56.1997 238.453 55.8497C238.033 55.5697 237.613 55.4297 237.193 55.4297C236.073 55.4297 235.233 55.5697 234.533 55.8497C233.763 56.1997 233.413 56.7597 233.413 57.5297C233.413 58.0897 233.483 58.6497 233.623 59.0697L233.833 59.9097L233.973 60.6797C234.113 61.7997 234.183 62.8497 234.323 63.8297C234.393 64.8097 234.463 65.8597 234.463 66.9097C234.463 69.7097 234.393 72.5097 234.393 75.1697L234.253 83.4997V87.6997C234.183 89.2397 234.183 90.7097 234.183 92.1797V98.8297C234.183 99.1097 234.253 99.5297 234.393 100.09C234.463 100.51 234.673 101 235.023 101.49C235.303 101.84 235.653 102.19 236.003 102.54C236.283 102.82 236.703 103.03 237.263 103.03C238.383 103.03 239.223 102.54 239.713 101.7C240.203 100.79 240.483 99.8097 240.483 98.8297C240.343 98.4097 240.273 98.1297 240.273 97.8497L240.063 96.7297C239.993 96.4497 239.993 96.1697 239.993 95.8897L239.853 94.9797V93.2997C239.783 92.5297 239.783 91.6897 239.783 90.7097C239.783 89.7297 239.713 88.7497 239.713 87.6297V84.2697C241.463 85.4597 243.213 86.2997 244.963 86.7897C246.643 87.3497 248.253 87.6297 249.723 87.6297C252.523 87.6297 254.973 87.0697 257.073 85.9497C259.033 84.8297 260.713 83.2897 262.043 81.4697C263.303 79.6497 264.283 77.6897 264.913 75.4497C265.473 73.2097 265.823 71.0397 265.823 68.7997ZM259.383 68.0997C259.383 70.4797 259.173 72.5797 258.753 74.4697C258.333 76.4297 257.703 78.1097 256.933 79.5097C256.093 80.9097 255.113 82.0297 253.993 82.7297C252.873 83.5697 251.543 83.9197 250.143 83.9197C249.163 83.9197 248.113 83.7797 246.993 83.4297C245.803 83.1497 244.753 82.7297 243.773 82.1697C242.723 81.6097 241.883 80.9097 241.253 80.0697C240.553 79.2997 240.203 78.3897 240.203 77.4097V75.0997C240.203 73.7697 240.203 72.6497 240.273 71.8097C240.273 71.0397 240.413 70.3397 240.693 69.6397C240.973 68.6597 241.533 67.5397 242.513 66.4197C243.423 65.2997 244.473 64.2497 245.733 63.2697C246.993 62.3597 248.323 61.5897 249.793 60.8897C251.193 60.3297 252.523 59.9797 253.853 59.9797C254.973 59.9797 255.883 60.2597 256.653 60.7497C257.353 61.3097 257.913 62.0097 258.333 62.8497C258.753 63.6897 259.033 64.5297 259.173 65.5097C259.313 66.4897 259.383 67.3297 259.383 68.0997ZM301.784 71.9497C301.784 69.4997 301.364 67.2597 300.664 65.2297C299.894 63.2697 298.844 61.5197 297.444 60.1197C296.044 58.7197 294.364 57.6697 292.404 56.8297C290.374 56.1297 288.134 55.7097 285.614 55.7097C283.584 55.7097 281.694 56.1997 280.014 57.1097C278.264 58.0897 276.724 59.4197 275.464 61.0297C274.204 62.7097 273.224 64.5997 272.524 66.6997C271.754 68.8697 271.404 71.1097 271.404 73.4897C271.404 75.8697 271.754 77.9697 272.524 79.9297C273.224 81.8897 274.204 83.4997 275.534 84.8297C276.794 86.2297 278.334 87.3497 280.084 88.0497C281.834 88.7497 283.724 89.1697 285.824 89.1697C288.134 89.1697 290.304 88.6797 292.264 87.7697C294.224 86.9297 295.904 85.6697 297.304 84.0597C298.704 82.5197 299.754 80.6297 300.594 78.5297C301.364 76.4997 301.784 74.3297 301.784 71.9497ZM296.884 71.0397C296.884 73.0697 296.604 74.8897 296.044 76.5697C295.414 78.2497 294.644 79.6497 293.664 80.7697C292.684 82.0297 291.494 82.9397 290.164 83.5697C288.834 84.2697 287.434 84.5497 286.034 84.5497C284.494 84.5497 283.164 84.2697 282.044 83.7097C280.924 83.2197 279.944 82.4497 279.244 81.4697C278.474 80.4897 277.914 79.3697 277.564 77.9697C277.144 76.7097 277.004 75.2397 277.004 73.6997C277.004 71.8797 277.284 70.1997 277.844 68.5897C278.404 66.9797 279.104 65.5097 280.084 64.2497C280.924 63.0597 281.974 62.0797 283.234 61.3797C284.424 60.6797 285.684 60.3297 287.084 60.3297C288.274 60.3297 289.464 60.5397 290.724 60.9597C291.844 61.3797 292.894 62.0797 293.804 62.9197C294.714 63.8297 295.484 64.9497 296.044 66.2097C296.604 67.6097 296.884 69.2197 296.884 71.0397ZM346.421 64.2497C346.421 63.4797 346.351 62.5697 346.281 61.5897C346.211 60.6097 346.071 59.6997 345.861 58.8597C345.581 58.0197 345.161 57.3197 344.741 56.7597C344.251 56.1997 343.621 55.9197 342.921 55.9197C342.011 55.9197 341.241 56.1997 340.541 56.7597C340.121 57.1097 339.911 57.3897 339.771 57.5997C339.631 57.8797 339.561 58.1597 339.561 58.5097C339.561 58.9297 339.701 59.2797 339.981 59.6297L340.611 60.7497C340.821 61.1697 340.961 61.7297 341.101 62.4297C341.101 63.1297 341.171 64.1097 341.171 65.2997C341.171 68.1697 340.751 71.3197 339.911 74.6797C339.351 76.9197 338.721 78.7397 337.881 80.1397C336.971 81.5397 335.851 82.2397 334.451 82.2397C333.751 82.2397 333.121 81.9597 332.561 81.3997C332.001 80.8397 331.511 80.1397 331.091 79.2297C330.671 78.3197 330.321 77.2697 330.041 76.0797C329.761 74.9597 329.691 73.6997 329.691 72.4397V65.7897C329.691 65.1597 329.411 64.6697 328.851 64.2497C328.291 63.8997 327.661 63.6897 327.101 63.6897C326.471 63.6897 325.911 63.8297 325.421 64.1097C324.861 64.4597 324.441 64.9497 324.231 65.5797C324.231 65.6497 324.161 65.7897 324.161 65.9997C324.091 66.2797 324.091 66.4197 324.091 66.4897C324.091 66.9097 324.161 67.3297 324.301 67.7497C324.371 68.2397 324.441 68.6597 324.441 69.0097C324.441 70.2697 324.301 71.5997 324.021 73.1397C323.741 74.6797 323.321 76.1497 322.761 77.4797C322.201 78.8797 321.571 79.9997 320.801 80.9097C319.961 81.8197 319.051 82.2397 318.071 82.2397C316.391 82.2397 315.131 80.9097 314.151 78.1797C313.171 75.5197 312.681 71.1797 312.681 65.1597C312.681 64.1797 312.751 63.1297 312.961 62.1497C313.171 61.1697 313.451 60.2597 313.731 59.2797C313.591 58.5797 313.171 57.9497 312.471 57.5297C311.211 56.8997 310.301 56.5497 309.671 56.5497C309.181 56.5497 308.831 56.7597 308.621 57.0397C308.341 57.3897 308.131 57.7397 307.991 58.1597C307.851 58.7197 307.711 59.2097 307.641 59.7697L307.501 61.3097C307.361 62.2897 307.361 63.2697 307.361 64.2497V66.9097C307.361 68.5897 307.501 70.6197 307.921 72.9297C308.201 75.3097 308.831 77.4797 309.741 79.5797C310.581 81.6797 311.701 83.4997 313.171 84.9697C314.571 86.4397 316.391 87.1397 318.631 87.1397C320.031 87.1397 321.431 86.5797 322.761 85.3897C324.091 84.2697 325.281 82.2397 326.331 79.2997C326.821 80.5597 327.451 81.6097 328.221 82.5197C328.921 83.4997 329.621 84.2697 330.461 84.8997C331.301 85.5997 332.141 86.0897 332.981 86.3697C333.821 86.7197 334.591 86.8597 335.361 86.8597C336.971 86.8597 338.511 86.1597 339.981 84.6897C341.381 83.2897 342.711 80.9797 343.901 77.7597C344.321 76.5697 344.671 75.3097 345.021 74.0497C345.301 72.7897 345.581 71.5297 345.861 70.2697L346.281 66.9097C346.351 65.9297 346.421 65.0197 346.421 64.2497ZM381.26 81.9597C381.26 81.6797 381.05 81.3297 380.7 80.9097C380.28 80.4897 379.79 80.2797 379.23 80.2797C378.53 80.2797 377.9 80.4897 377.34 80.8397C376.71 81.2597 376.08 81.6797 375.38 82.0997C374.61 82.5197 373.84 82.9397 373 83.2897C372.16 83.7097 371.25 83.9897 370.41 84.1997C369.5 84.4797 368.59 84.5497 367.75 84.5497C366.21 84.5497 364.81 84.2697 363.62 83.7097C362.36 83.2197 361.24 82.5197 360.4 81.5397C359.49 80.6297 358.86 79.5097 358.51 78.1097C358.09 76.7097 357.95 75.3097 357.95 73.8397C359.07 74.5397 360.4 75.0297 361.94 75.4497C363.48 75.8697 364.95 76.0797 366.35 76.0797C368.31 76.0797 370.2 75.8697 372.02 75.3097C373.84 74.7497 375.38 74.0497 376.78 73.1397C378.11 72.2997 379.16 71.2497 380 70.0597C380.84 68.9397 381.26 67.6797 381.26 66.3497C381.26 64.5297 380.7 62.8497 379.58 61.4497C378.39 60.1197 376.92 58.9997 375.17 58.0197C373.77 57.3197 372.09 56.7597 370.27 56.3397C368.38 55.9897 366.63 55.7797 365.02 55.7797C363.41 55.7797 361.87 56.3397 360.33 57.4597C358.79 58.5797 357.39 60.0497 356.2 61.7997C354.94 63.6197 353.89 65.6497 353.12 67.8897C352.35 70.1297 352 72.4397 352 74.6797C352 76.3597 352.28 78.0397 352.84 79.6497C353.4 81.3297 354.31 82.7297 355.5 83.9897C356.69 85.2497 358.23 86.2997 360.12 87.0697C361.94 87.7697 364.11 88.1897 366.7 88.1897C368.24 88.1897 369.85 88.0497 371.6 87.7697C373.28 87.4897 374.82 86.9997 376.22 86.4397C377.62 85.8797 378.88 85.2497 379.86 84.4797C380.77 83.7797 381.26 82.9397 381.26 81.9597ZM376.22 66.5597C376.22 67.3997 375.87 68.1697 375.31 68.8697C374.68 69.5697 373.91 70.1997 373 70.6897C372.02 71.1797 370.9 71.5297 369.78 71.8097C368.59 72.0897 367.47 72.2297 366.35 72.2297C364.39 72.2297 362.71 71.9497 361.38 71.2497C359.98 70.6897 359.14 69.7797 358.72 68.5897C359 67.4697 359.42 66.4197 359.98 65.3697C360.54 64.3897 361.17 63.4797 361.94 62.7097C362.64 61.9397 363.41 61.3097 364.32 60.8197C365.16 60.3997 366.07 60.1197 367.05 60.1197C367.96 60.1197 369.01 60.2597 370.2 60.5397C371.39 60.8197 372.44 61.2397 373.28 61.7297C374.12 62.2897 374.82 62.9197 375.38 63.6897C375.94 64.5297 376.22 65.5097 376.22 66.5597ZM413.883 58.2297C413.883 57.8097 413.673 57.3897 413.393 56.9697C413.043 56.6897 412.623 56.4097 412.133 56.1297C411.573 55.8497 411.083 55.6397 410.523 55.4997C409.893 55.3597 409.333 55.2897 408.913 55.2897C407.793 55.2897 406.673 55.5697 405.483 56.1297C404.223 56.6897 403.033 57.3897 401.843 58.3697C400.583 59.4197 399.393 60.6797 398.273 62.1497C397.083 63.6897 396.033 65.3697 395.193 67.1897C395.333 65.5797 395.403 64.1097 395.543 62.8497C395.543 61.6597 395.613 60.5397 395.613 59.5597C395.613 58.6497 395.263 57.9497 394.703 57.3897C394.073 56.8997 393.373 56.6197 392.603 56.6197C391.833 56.6197 391.203 56.8997 390.643 57.3197C390.013 57.8097 389.593 58.3697 389.383 58.9997C389.313 59.2097 389.243 59.6997 389.243 60.5397C389.173 61.3797 389.103 62.4297 389.103 63.5497L388.963 67.4697V71.4597C388.963 73.2797 388.963 75.0297 389.103 76.7797L389.243 82.0997C389.243 82.9397 389.383 83.7797 389.523 84.6197C389.593 85.4597 389.873 86.2297 390.293 86.8597C390.853 87.7697 391.833 88.2597 393.233 88.2597C394.213 88.2597 394.983 87.9797 395.613 87.4897C396.173 86.9297 396.523 86.2997 396.523 85.4597C396.523 84.1997 396.383 82.7997 396.103 81.1897C395.753 79.6497 395.613 78.1097 395.613 76.5697C395.613 76.0097 395.753 75.2397 396.103 74.3297C396.453 73.4897 396.873 72.6497 397.433 71.6697C397.923 70.7597 398.483 69.7797 399.183 68.7297C399.813 67.7497 400.443 66.8397 401.003 65.8597C401.283 65.3697 401.773 64.8097 402.333 64.1097C402.893 63.4797 403.523 62.8497 404.223 62.2897C404.923 61.7297 405.763 61.3097 406.603 60.8897C407.373 60.4697 408.213 60.2597 409.053 60.2597C409.263 60.2597 409.613 60.3997 410.103 60.5397C410.243 60.6097 410.523 60.6097 410.943 60.6097C411.293 60.6797 411.503 60.6797 411.643 60.6797C412.133 60.6797 412.623 60.3997 413.183 59.8397C413.603 59.2797 413.883 58.7897 413.883 58.2297ZM447.363 81.9597C447.363 81.6797 447.153 81.3297 446.803 80.9097C446.383 80.4897 445.893 80.2797 445.333 80.2797C444.633 80.2797 444.003 80.4897 443.443 80.8397C442.813 81.2597 442.183 81.6797 441.483 82.0997C440.713 82.5197 439.943 82.9397 439.103 83.2897C438.263 83.7097 437.353 83.9897 436.513 84.1997C435.603 84.4797 434.693 84.5497 433.853 84.5497C432.313 84.5497 430.913 84.2697 429.723 83.7097C428.463 83.2197 427.343 82.5197 426.503 81.5397C425.593 80.6297 424.963 79.5097 424.613 78.1097C424.193 76.7097 424.053 75.3097 424.053 73.8397C425.173 74.5397 426.503 75.0297 428.043 75.4497C429.583 75.8697 431.053 76.0797 432.453 76.0797C434.413 76.0797 436.303 75.8697 438.123 75.3097C439.943 74.7497 441.483 74.0497 442.883 73.1397C444.213 72.2997 445.263 71.2497 446.103 70.0597C446.943 68.9397 447.363 67.6797 447.363 66.3497C447.363 64.5297 446.803 62.8497 445.683 61.4497C444.493 60.1197 443.023 58.9997 441.273 58.0197C439.873 57.3197 438.193 56.7597 436.373 56.3397C434.483 55.9897 432.733 55.7797 431.123 55.7797C429.513 55.7797 427.973 56.3397 426.433 57.4597C424.893 58.5797 423.493 60.0497 422.303 61.7997C421.043 63.6197 419.993 65.6497 419.223 67.8897C418.453 70.1297 418.103 72.4397 418.103 74.6797C418.103 76.3597 418.383 78.0397 418.943 79.6497C419.503 81.3297 420.413 82.7297 421.603 83.9897C422.793 85.2497 424.333 86.2997 426.223 87.0697C428.043 87.7697 430.213 88.1897 432.803 88.1897C434.343 88.1897 435.953 88.0497 437.703 87.7697C439.383 87.4897 440.923 86.9997 442.323 86.4397C443.723 85.8797 444.983 85.2497 445.963 84.4797C446.873 83.7797 447.363 82.9397 447.363 81.9597ZM442.323 66.5597C442.323 67.3997 441.973 68.1697 441.413 68.8697C440.783 69.5697 440.013 70.1997 439.103 70.6897C438.123 71.1797 437.003 71.5297 435.883 71.8097C434.693 72.0897 433.573 72.2297 432.453 72.2297C430.493 72.2297 428.813 71.9497 427.483 71.2497C426.083 70.6897 425.243 69.7797 424.823 68.5897C425.103 67.4697 425.523 66.4197 426.083 65.3697C426.643 64.3897 427.273 63.4797 428.043 62.7097C428.743 61.9397 429.513 61.3097 430.423 60.8197C431.263 60.3997 432.173 60.1197 433.153 60.1197C434.063 60.1197 435.113 60.2597 436.303 60.5397C437.493 60.8197 438.543 61.2397 439.383 61.7297C440.223 62.2897 440.923 62.9197 441.483 63.6897C442.043 64.5297 442.323 65.5097 442.323 66.5597ZM483.137 42.1297C483.137 41.9897 482.997 41.7797 482.787 41.4997C482.507 41.2197 482.087 40.9397 481.667 40.6597C481.247 40.3797 480.757 40.1697 480.267 39.8897C479.707 39.7497 479.147 39.6097 478.587 39.6097C477.677 39.6097 477.047 39.9597 476.697 40.5897C476.417 41.0097 476.207 42.1297 476.067 43.8797C475.927 45.6997 475.787 47.6597 475.787 49.7597C475.717 50.1797 475.647 51.2297 475.647 52.9097V59.2097C474.247 57.8797 472.847 56.9697 471.377 56.4097C469.837 55.9897 468.227 55.7097 466.477 55.7097C464.027 55.7097 461.927 56.4097 460.247 57.7397C458.567 59.1397 457.167 60.7497 456.047 62.7097C454.927 64.7397 454.157 66.8397 453.667 69.0797C453.177 71.3197 452.967 73.3497 452.967 75.0297C452.967 76.9897 453.247 78.6697 453.807 80.2097C454.367 81.8197 455.207 83.2197 456.327 84.3397C457.447 85.5297 458.917 86.4397 460.667 87.0697C462.347 87.6297 464.377 87.9797 466.687 87.9797C468.157 87.9797 469.697 87.5597 471.377 86.7197C472.987 85.8797 474.317 84.6897 475.297 83.1497C475.297 83.9897 475.367 84.8297 475.507 85.5297C475.577 86.2997 475.717 86.9297 475.997 87.4197C476.207 87.9097 476.557 88.3297 477.047 88.6097C477.537 88.8897 478.167 89.0997 479.007 89.0997C479.637 89.0997 480.267 88.8897 480.967 88.6097C481.667 88.3297 482.017 87.9097 482.017 87.4897C482.017 87.2797 481.947 87.0697 481.947 86.9297C481.877 86.8597 481.877 86.7897 481.877 86.6497C481.877 86.5797 481.807 86.5097 481.807 86.3697C481.667 86.1597 481.667 85.9497 481.667 85.7397L481.527 85.1097C481.387 84.2697 481.317 83.3597 481.317 82.4497C481.247 81.6097 481.247 80.6997 481.247 79.7897C481.247 76.0797 481.317 72.3697 481.527 68.6597C481.667 65.0197 481.737 61.3097 481.737 57.5297C481.737 55.8497 481.807 54.1697 481.947 52.4897L482.367 47.5197C482.367 47.0297 482.437 46.5397 482.577 45.9797L482.857 44.4397C482.857 44.2997 482.927 44.0897 482.927 43.8797L483.067 43.3197C483.067 43.1097 483.137 42.8997 483.137 42.6897V42.1297ZM475.437 69.6397C475.437 70.9697 475.297 72.4397 475.087 74.1197C474.807 75.7997 474.317 77.4097 473.687 78.8797C472.987 80.4197 472.007 81.6797 470.817 82.6597C469.557 83.7097 468.017 84.1997 466.127 84.1997C464.657 84.1997 463.467 83.9197 462.557 83.3597C461.577 82.7997 460.877 82.0997 460.387 81.1897C459.827 80.3497 459.407 79.3697 459.267 78.3197C458.987 77.3397 458.917 76.3597 458.917 75.3797C458.917 74.2597 459.057 72.7897 459.407 71.1097C459.687 69.4297 460.247 67.8197 460.947 66.2797C461.647 64.7397 462.627 63.4097 463.887 62.2897C465.007 61.2397 466.477 60.6797 468.227 60.6797C469.627 60.6797 470.887 61.0297 471.867 61.5897C472.777 62.2197 473.477 62.9897 474.037 63.8297C474.527 64.7397 474.877 65.7197 475.087 66.7697C475.297 67.8197 475.437 68.7997 475.437 69.6397ZM543.091 70.5497C543.091 65.7897 541.831 62.1497 539.381 59.4897C536.931 56.8997 533.501 55.5697 529.021 55.5697C527.691 55.5697 526.221 55.9197 524.611 56.5497C522.931 57.2497 521.461 58.2297 520.131 59.5597C520.201 55.8497 520.271 52.6297 520.411 49.9697C520.481 47.3797 520.551 45.6297 520.551 44.7197C520.551 44.0197 520.551 43.3197 520.621 42.7597C520.621 42.1997 520.761 41.7097 520.971 41.1497L521.181 40.1697C521.251 39.8897 521.321 39.6797 521.321 39.5397C521.321 39.2597 520.971 38.9797 520.341 38.6297C519.921 38.4897 519.431 38.3497 519.011 38.2097C518.521 38.2097 518.101 38.1397 517.821 38.1397C517.261 38.1397 516.351 38.5597 515.161 39.2597C514.881 39.4697 514.531 39.7497 514.111 40.0297C513.691 40.3097 513.481 40.6597 513.481 41.0097C513.481 41.1497 513.481 41.3597 513.551 41.5697C513.551 41.8497 513.691 42.1297 513.901 42.4797C513.971 43.1797 514.041 44.1597 514.181 45.4897L514.461 49.4097L514.601 52.9797V54.6597C514.461 57.5997 514.391 60.3297 514.391 62.8497C514.391 63.9697 514.321 65.0197 514.321 66.0697V69.2197C514.251 70.1997 514.251 71.1097 514.251 71.8097V73.5597C514.251 73.8397 514.251 74.3297 514.321 74.9597V77.1297L514.461 79.7897V82.2397C514.461 83.0097 514.531 83.6397 514.601 84.1297V84.9697C514.601 86.3697 515.021 87.3497 515.721 88.0497C516.351 88.6797 517.121 89.0297 517.961 89.0297C519.011 89.0297 519.781 88.6097 520.201 87.8397C520.481 87.4197 520.621 86.8597 520.691 86.2297C520.691 85.5997 520.761 85.0397 520.761 84.4797C521.601 85.4597 522.861 86.1597 524.401 86.7197C525.941 87.2797 527.901 87.5597 530.281 87.5597C531.961 87.5597 533.641 87.2097 535.181 86.5097C536.721 85.8097 538.121 84.6897 539.311 83.2197C540.431 81.8197 541.341 79.9997 542.041 77.8297C542.741 75.7297 543.091 73.3497 543.091 70.5497ZM536.791 70.1297C536.791 78.9497 533.991 83.2897 528.461 83.2897C527.551 83.2897 526.641 83.1497 525.661 82.7297C524.681 82.3797 523.841 81.8197 523.141 80.9797C522.301 80.2097 521.671 79.1597 521.181 77.8297C520.621 76.5697 520.411 74.9597 520.411 73.0697C520.411 71.1097 520.621 69.3597 521.111 67.7497C521.531 66.2097 522.231 64.8097 523.071 63.6897C523.911 62.5697 524.891 61.7297 526.081 61.0297C527.201 60.4697 528.461 60.1197 529.861 60.1197C531.961 60.1197 533.641 61.0297 534.901 62.8497C536.161 64.6697 536.791 67.1197 536.791 70.1297ZM577.58 61.0997L577.79 59.4897C577.86 58.9297 577.93 58.4397 577.93 57.8797C577.93 57.3897 577.58 56.9697 576.95 56.5497C576.25 56.1297 575.55 55.9197 574.92 55.9197C574.08 55.9197 573.45 56.1297 573.03 56.4097C572.61 56.7597 572.33 57.3197 572.19 58.0197C571.91 58.9997 571.77 60.0497 571.77 61.0297C571.7 62.0797 571.56 63.0597 571.42 64.0397C571.28 64.8797 571.07 65.8597 570.79 67.1197C570.44 68.3797 570.02 69.7097 569.53 71.1097C569.04 72.5797 568.48 74.0497 567.85 75.4497C567.22 76.9897 566.52 78.3197 565.75 79.4397C564.91 80.6297 564 81.6097 563.09 82.3097C562.11 83.0797 561.13 83.4297 560.08 83.4297C559.1 83.4297 558.26 83.1497 557.63 82.5897C556.93 82.0297 556.37 81.3997 556.02 80.5597C555.6 79.7897 555.39 78.9497 555.25 77.9697C555.04 77.0597 554.97 76.2197 554.97 75.3797C554.97 73.7697 554.97 72.0897 555.04 70.4097C555.04 68.7297 555.11 67.1197 555.25 65.5797L555.46 64.1797C555.46 63.7597 555.53 63.2697 555.67 62.7097C555.74 62.2197 555.81 61.7297 555.88 61.3097C555.88 60.8897 555.95 60.5397 555.95 60.1197C555.95 59.4897 555.6 58.9297 554.97 58.3697C554.34 57.8797 553.71 57.5997 553.01 57.5997C552.8 57.5997 552.52 57.6697 552.17 57.6697L550.91 57.9497C550.49 58.0897 550.07 58.2297 549.79 58.3697C549.51 58.5797 549.37 58.7897 549.37 58.9297C549.37 59.7697 549.37 60.6097 549.51 61.4497C549.58 62.2897 549.65 63.1297 549.65 63.9697V69.1497C549.58 70.8297 549.58 72.5797 549.58 74.2597C549.58 75.9397 549.65 77.5497 549.93 79.2297C550.21 80.9097 550.7 82.3797 551.47 83.7097C552.17 85.0397 553.15 86.0897 554.41 86.9297C555.67 87.7697 557.28 88.1897 559.38 88.1897C562.18 88.1897 564.63 87.2797 566.66 85.3897C568.62 83.5697 570.44 80.4197 572.05 76.0797L571.91 79.7897L571.77 83.8497C571.63 85.1797 571.56 86.4397 571.56 87.6997C571.49 88.9597 571.49 90.0097 571.49 90.9897C571.49 93.4397 570.93 95.3997 569.81 96.8697C568.62 98.3397 566.59 99.1097 563.72 99.1097C562.04 99.1097 560.57 98.9697 559.24 98.6897C557.84 98.4097 556.44 97.9197 554.97 97.3597C554.27 97.4297 553.64 97.7097 553.08 98.1297C552.52 98.4797 552.24 98.9697 552.24 99.5997C552.24 100.23 552.38 100.79 552.73 101.28C553.08 101.7 553.64 102.19 554.48 102.68C554.76 102.89 555.39 103.1 556.3 103.24C557.14 103.38 558.12 103.45 559.17 103.59L562.04 103.73C562.95 103.73 563.65 103.8 564.21 103.8C566.45 103.8 568.41 103.45 570.02 102.89C571.56 102.19 572.82 101.35 573.8 100.23C574.71 99.0397 575.41 97.6397 575.83 96.0297C576.25 94.3497 576.46 92.5297 576.46 90.4997C576.46 87.1397 576.46 83.8497 576.6 80.4897C576.67 77.1997 576.74 73.8397 576.74 70.4797C576.74 68.9397 576.81 67.3297 576.95 65.7897C577.09 64.2497 577.3 62.6397 577.58 61.0997Z" fill="white"/>
<path d="M324.265 134.08C324.265 133.8 324.125 133.45 323.845 133.03C323.565 132.75 323.215 132.4 322.795 132.05C322.375 131.77 321.955 131.56 321.535 131.35C321.115 131.21 320.695 131.07 320.345 131.07C319.715 131.07 318.945 131.28 318.105 131.56C317.615 131.7 317.195 131.84 316.775 131.98C316.355 132.12 315.865 132.26 315.445 132.33C312.365 132.89 309.215 133.24 305.995 133.45L296.475 134.15C295.215 134.29 293.955 134.29 292.695 134.29C291.365 134.29 290.035 134.36 288.775 134.43C288.425 134.5 288.075 134.5 287.795 134.5C287.515 134.5 287.235 134.57 286.955 134.64C286.605 134.78 286.325 134.92 286.115 135.13C285.835 135.34 285.695 135.62 285.695 136.04C285.695 136.39 285.835 136.74 286.115 137.09C286.325 137.51 286.605 137.86 287.025 138.14C287.375 138.49 287.795 138.77 288.215 138.98C288.635 139.26 288.985 139.33 289.405 139.33C290.175 139.33 291.015 139.26 291.855 139.12C292.275 139.05 292.765 138.98 293.185 138.91C293.605 138.84 294.025 138.77 294.515 138.7C295.775 138.63 297.035 138.49 298.435 138.35C299.765 138.28 301.305 138.21 302.985 138.07C302.565 142.13 302.145 146.61 301.725 151.51C301.305 156.41 301.095 161.38 301.095 166.42C301.095 169.36 301.165 171.88 301.375 173.98C301.515 176.08 301.655 177.62 301.865 178.46C302.005 179.16 302.495 179.65 303.335 180.07C304.105 180.42 304.945 180.63 305.785 180.63C306.485 180.63 307.185 180.42 307.745 180.07C308.305 179.72 308.585 179.23 308.585 178.53C308.585 178.18 308.515 177.83 308.445 177.41L308.165 176.29C308.025 175.94 307.955 175.59 307.815 175.17C307.675 174.82 307.605 174.47 307.605 174.05C307.465 172.79 307.325 170.83 307.255 168.1C307.115 165.44 307.115 162.29 307.115 158.79C307.115 155.57 307.255 152.21 307.535 148.57C307.815 145.07 308.165 141.36 308.445 137.58C310.825 137.3 313.205 137.09 315.515 136.95C317.755 136.81 319.925 136.46 322.025 136.04C322.585 135.9 323.145 135.69 323.635 135.41C324.055 135.13 324.265 134.64 324.265 134.08ZM366.882 134.22C366.882 133.38 366.462 132.75 365.692 132.33C364.852 131.91 364.012 131.7 363.172 131.7C361.702 131.7 360.792 132.12 360.442 132.96C360.022 133.8 359.882 134.85 359.882 136.11C359.882 136.67 359.882 137.16 359.952 137.72V139.33C359.952 141.57 359.882 144.02 359.812 146.75C359.672 149.48 359.532 152.14 359.532 154.66L354.772 155.15C352.812 155.43 350.782 155.64 348.682 155.85L342.312 156.48C340.212 156.69 338.392 156.83 336.922 156.9C336.852 155.85 336.852 154.94 336.852 154.1V151.93C336.852 151.65 336.852 151.23 336.922 150.67C336.922 150.11 336.992 149.55 337.132 148.85C337.132 148.15 337.202 147.45 337.342 146.75C337.412 146.05 337.552 145.35 337.692 144.65L338.392 141.01C338.672 139.82 338.952 138.7 339.232 137.58C339.232 137.51 339.302 137.37 339.302 137.16V137.09C339.302 136.39 338.812 135.76 337.972 135.27C337.132 134.85 336.292 134.64 335.592 134.64C334.892 134.64 334.472 134.78 334.192 134.99C333.842 135.27 333.562 135.76 333.352 136.39C333.002 137.23 332.722 138.35 332.582 139.61C332.372 140.87 332.232 142.27 332.092 143.74C331.952 144.44 331.882 145.21 331.882 146.05L331.742 148.71C331.672 149.69 331.672 150.53 331.672 151.37C331.602 152.28 331.602 153.05 331.602 153.61V156.97C331.322 157.04 330.972 157.11 330.552 157.11C330.062 157.18 329.642 157.18 329.362 157.18C328.662 157.18 328.172 157.46 327.892 157.88C327.612 158.37 327.472 158.93 327.472 159.56C327.472 160.19 327.752 160.68 328.312 161.03C328.802 161.45 329.362 161.66 329.922 161.66H331.742L331.952 165.79C332.022 167.26 332.162 168.73 332.302 170.13C332.442 171.67 332.582 173.07 332.792 174.33C333.002 175.66 333.282 176.71 333.702 177.48C334.262 178.67 335.102 179.23 336.362 179.23C337.062 179.23 337.692 179.02 338.252 178.6C338.812 178.18 339.162 177.62 339.162 176.92C339.162 176.78 339.092 176.5 339.022 176.22C338.742 175.31 338.532 174.12 338.252 172.58C337.972 171.11 337.832 169.71 337.762 168.31L337.482 165.16C337.342 164.11 337.272 162.85 337.202 161.45C339.442 161.31 341.472 161.17 343.432 161.03C345.322 160.89 347.142 160.75 348.962 160.54L350.992 160.33C351.832 160.26 352.742 160.19 353.722 160.05L356.732 159.63C357.712 159.49 358.692 159.35 359.532 159.21L359.672 166.07C359.672 168.1 359.812 170.13 359.952 172.16V174.89C359.952 175.38 360.022 175.87 360.022 176.29C360.022 176.71 360.022 177.13 360.162 177.55C360.232 178.25 360.652 178.81 361.492 179.23C362.192 179.65 363.032 179.86 363.872 179.86C365.412 179.86 366.252 179.09 366.252 177.48C366.252 177.06 366.182 176.57 366.112 176.15L365.902 174.89C365.762 174.4 365.692 173.77 365.692 173.07C365.552 172.37 365.482 171.74 365.482 171.11C365.202 166.63 365.062 162.08 365.062 157.53C365.062 154.94 365.062 152.21 365.132 149.34C365.202 146.54 365.342 143.81 365.482 141.15C365.482 140.1 365.622 139.12 365.832 138.14C365.972 137.23 366.252 136.25 366.672 135.13C366.812 134.99 366.882 134.64 366.882 134.22ZM408.929 133.66C408.929 133.03 408.649 132.47 408.229 132.05C407.739 131.63 407.179 131.35 406.479 131.35C406.059 131.35 405.499 131.42 404.799 131.42C404.099 131.49 403.399 131.56 402.559 131.63L400.109 131.77L397.799 131.91L385.479 132.47C383.659 132.61 381.979 132.68 380.439 132.82C378.829 132.96 377.639 133.24 376.939 133.59C376.519 133.8 376.239 134.08 376.099 134.43C375.959 134.85 375.959 135.13 375.959 135.34C375.959 136.53 376.799 137.37 378.549 137.86C378.549 139.4 378.479 140.73 378.479 141.92L378.199 149.13C378.059 150.39 377.989 151.79 377.989 153.19C377.429 153.4 377.079 153.47 376.939 153.47H376.169C375.609 153.61 375.119 153.82 374.629 154.24C374.069 154.66 373.859 155.15 373.859 155.64C373.859 156.41 374.069 156.97 374.559 157.39C374.979 157.88 375.399 158.09 375.959 158.09H376.659C376.869 158.09 377.219 158.02 377.779 157.95C377.639 158.51 377.569 159.28 377.499 160.19C377.359 161.17 377.219 162.15 377.149 163.13L376.869 166.21C376.729 167.19 376.729 168.1 376.729 168.8C376.729 169.64 376.729 170.41 376.869 171.18C376.939 172.02 377.149 172.72 377.569 173.42C377.989 174.54 378.829 175.52 380.019 176.22C381.139 176.99 382.399 177.55 383.799 177.97C385.199 178.46 386.599 178.81 388.139 178.95C389.679 179.09 391.009 179.16 392.269 179.16C394.439 179.16 396.539 179.09 398.639 178.95C400.599 178.81 402.699 178.53 404.869 178.25L406.059 178.04L407.319 177.62C407.739 177.48 408.019 177.2 408.299 176.92C408.579 176.64 408.719 176.29 408.719 175.87C408.719 175.45 408.579 175.1 408.299 174.75C408.019 174.4 407.669 174.05 407.249 173.77C406.829 173.49 406.339 173.28 405.919 173.07C405.359 172.93 404.939 172.86 404.519 172.86C403.399 172.86 402.279 173 401.159 173.21C400.599 173.35 400.179 173.42 399.759 173.49C399.269 173.56 398.849 173.63 398.499 173.7C397.379 173.91 396.259 174.05 394.999 174.19C393.739 174.33 392.549 174.4 391.359 174.4C390.239 174.4 389.189 174.33 388.139 174.19C387.089 174.12 386.109 173.91 385.269 173.49C384.359 173.21 383.659 172.65 383.099 171.95C382.539 171.32 382.329 170.41 382.329 169.29C382.329 167.61 382.399 165.72 382.609 163.62L383.169 157.46C385.829 157.25 388.769 157.04 391.919 156.83C395.069 156.62 397.939 156.34 400.599 156.06C401.369 155.99 401.999 155.71 402.559 155.29C403.049 154.94 403.329 154.38 403.329 153.61C403.329 152.91 403.049 152.28 402.559 151.79C402.069 151.37 401.439 151.16 400.739 151.16C400.039 151.16 399.269 151.23 398.499 151.3L395.979 151.58L393.319 151.79L390.169 152.07L386.739 152.35L383.519 152.63C383.659 149.97 383.729 147.45 383.799 145.07L384.009 137.72C385.969 137.58 387.719 137.44 389.259 137.3C390.659 137.23 392.269 137.16 394.089 137.02C396.049 136.88 398.219 136.81 400.529 136.81C402.769 136.81 404.939 136.67 406.899 136.39C407.529 136.32 408.019 136.04 408.439 135.55C408.719 135.13 408.929 134.5 408.929 133.66ZM481.944 179.86C481.944 179.72 481.874 179.58 481.804 179.37C481.734 179.23 481.664 179.09 481.594 178.95C481.454 178.74 481.384 178.53 481.384 178.32C481.244 178.18 481.174 177.97 481.174 177.83C480.894 177.2 480.614 176.5 480.404 175.66C480.194 174.89 480.054 173.91 479.984 172.65C479.844 171.25 479.704 169.71 479.704 168.17C479.564 166.63 479.564 165.16 479.564 163.76C479.564 160.68 479.564 157.95 479.704 155.57C479.704 153.19 479.844 150.95 479.984 148.85C480.054 146.89 480.194 145 480.404 143.25C480.614 141.5 480.894 139.75 481.174 138L481.454 136.81C481.524 136.46 481.594 136.04 481.594 135.62C481.524 135.13 481.244 134.78 480.684 134.57C480.124 134.43 479.564 134.29 479.074 134.29C478.374 134.29 477.674 134.36 476.974 134.43C476.204 134.57 475.644 134.78 475.224 135.06C474.244 135.76 473.264 137.02 472.284 138.7C471.234 140.45 470.184 142.41 469.204 144.65C468.154 146.96 467.174 149.41 466.264 151.93C465.284 154.59 464.304 157.11 463.464 159.49C462.484 162.01 461.714 164.11 461.084 165.93C460.384 167.75 459.684 169.29 459.054 170.69C457.794 168.73 456.814 166.98 455.974 165.37C455.134 163.83 454.364 162.22 453.734 160.61C452.474 157.81 451.494 154.87 450.794 151.93C450.024 148.99 449.394 145.91 448.904 142.76C448.764 141.71 448.624 140.59 448.554 139.47C448.414 138.35 448.274 137.23 448.064 136.11C447.784 135.34 447.224 134.71 446.244 134.29C445.194 133.94 444.214 133.73 443.374 133.73C442.254 133.73 441.484 133.94 441.204 134.29C440.854 134.71 440.714 135.2 440.714 135.76V136.74C440.714 137.16 440.644 137.44 440.644 137.65C439.944 140.73 439.454 144.37 439.104 148.57C438.684 152.77 438.544 157.32 438.544 162.22V166.84L438.684 169.71C438.684 170.69 438.684 171.67 438.754 172.58C438.824 174.26 438.964 175.52 439.104 176.43C439.174 177.41 439.314 178.11 439.454 178.46C439.734 179.44 440.504 179.93 441.624 179.93C442.534 179.93 443.374 179.79 444.144 179.37C444.844 178.95 445.194 178.53 445.194 178.04C445.194 177.62 445.124 177.27 444.984 176.85C444.844 176.5 444.774 176.15 444.634 175.73L444.354 174.75C444.214 174.47 444.144 174.19 444.144 173.77C443.864 172.3 443.724 170.13 443.584 167.19C443.444 164.25 443.444 160.89 443.444 157.04V153.75L443.584 150.95L443.864 148.15L444.284 145C444.564 146.54 444.844 147.87 445.124 149.06C445.404 150.32 445.684 151.44 445.964 152.49C446.244 153.61 446.524 154.73 446.804 155.71C447.084 156.69 447.434 157.74 447.854 158.72C449.044 162.08 450.444 165.37 452.124 168.45C453.664 171.6 455.484 174.26 457.584 176.36C458.144 177.06 458.844 177.34 459.684 177.34C460.664 177.34 461.574 176.85 462.344 175.87C462.624 175.59 462.904 175.03 463.324 174.19C463.674 173.35 464.024 172.44 464.444 171.46C464.794 170.48 465.144 169.57 465.494 168.59L466.264 166.49L468.224 161.03C468.784 159.21 469.484 157.32 470.254 155.36C470.954 153.4 471.794 151.37 472.774 149.2C473.684 147.1 474.734 144.79 475.994 142.34C475.714 144.58 475.504 146.75 475.364 148.99C475.154 151.3 475.014 153.54 474.944 155.78C474.804 158.02 474.804 160.19 474.804 162.29C474.734 164.46 474.734 166.49 474.734 168.31C474.734 170.55 474.804 172.51 475.084 174.33C475.364 176.15 475.714 177.62 476.134 178.74C476.344 179.44 476.764 180 477.464 180.49C478.024 180.91 478.724 181.19 479.494 181.19C480.194 181.19 480.824 181.05 481.244 180.77C481.664 180.49 481.944 180.21 481.944 179.86ZM529.07 152.42C529.07 151.3 528.93 149.97 528.72 148.43C528.44 146.96 528.02 145.42 527.46 143.81C526.9 142.27 526.2 140.8 525.36 139.26C524.52 137.79 523.47 136.46 522.35 135.27C521.16 134.15 519.83 133.17 518.36 132.47C516.89 131.77 515.28 131.35 513.46 131.35C509.54 131.35 506.04 132.26 503.1 134.01C500.09 135.83 497.64 138.14 495.68 140.8C493.65 143.53 492.18 146.47 491.2 149.62C490.15 152.84 489.66 155.78 489.66 158.58C489.66 161.87 490.08 164.81 490.92 167.33C491.76 169.99 493.02 172.16 494.56 173.91C496.1 175.73 497.99 177.13 500.23 178.11C502.4 179.09 504.85 179.51 507.51 179.51C511.08 179.51 514.23 178.81 516.96 177.34C519.62 175.94 521.86 173.98 523.68 171.46C525.5 169.01 526.83 166.14 527.74 162.85C528.58 159.56 529.07 156.06 529.07 152.42ZM523.75 153.47C523.75 155.85 523.4 158.3 522.7 160.82C522 163.34 520.95 165.65 519.62 167.75C518.22 169.85 516.54 171.6 514.58 172.93C512.48 174.33 510.17 174.96 507.51 174.96C505.27 174.96 503.38 174.47 501.84 173.42C500.3 172.44 499.04 171.18 498.06 169.64C497.01 168.17 496.24 166.56 495.82 164.88C495.33 163.2 495.12 161.73 495.12 160.33C495.12 159.07 495.26 157.53 495.54 155.85C495.82 154.17 496.24 152.35 496.8 150.53C497.36 148.71 498.13 146.96 499.11 145.21C500.02 143.46 501.14 141.85 502.4 140.45C503.66 139.12 505.2 138 506.88 137.16C508.56 136.32 510.52 135.9 512.69 135.9C514.09 135.9 515.49 136.39 516.89 137.37C518.22 138.42 519.41 139.75 520.46 141.43C521.44 143.11 522.21 144.93 522.84 147.03C523.4 149.13 523.75 151.3 523.75 153.47ZM571.496 134.22C571.496 133.52 571.076 132.96 570.236 132.47C569.396 131.98 568.626 131.7 567.926 131.7C567.506 131.7 567.156 131.77 566.736 131.77C566.316 131.84 565.966 131.98 565.616 132.19C565.056 132.54 564.706 132.89 564.566 133.17C564.426 133.52 564.356 134.01 564.356 134.64C564.356 135.62 564.286 136.53 564.216 137.37C564.076 138.35 563.866 139.33 563.656 140.45C563.096 143.04 562.396 145.91 561.556 149.13C560.716 152.35 559.876 155.5 558.896 158.58C557.916 161.73 556.866 164.67 555.816 167.33C554.696 170.06 553.646 172.23 552.596 173.84C551.896 173.07 551.336 172.09 550.776 170.97C550.216 169.85 549.796 168.66 549.376 167.33C548.886 166 548.466 164.6 548.116 163.13C547.696 161.73 547.346 160.4 547.066 159C546.226 155.99 545.526 152.91 544.896 149.83L543.216 141.5C543.076 140.94 543.006 140.38 542.866 139.75C542.726 139.19 542.586 138.56 542.516 137.93L542.096 136.25C541.956 135.69 541.816 135.2 541.606 134.64C541.046 133.52 540.066 132.89 538.666 132.89C538.246 132.89 537.826 132.96 537.406 133.03C536.916 133.17 536.496 133.38 536.076 133.59C535.656 133.87 535.376 134.15 535.096 134.43C534.816 134.71 534.676 135.06 534.676 135.34C534.676 135.62 534.676 135.83 534.816 136.11L535.306 137.09C535.446 137.51 535.656 137.86 535.796 138.21C535.936 138.63 536.146 139.05 536.286 139.4C537.126 142.34 537.896 145.42 538.596 148.57C539.296 151.79 539.996 154.87 540.836 157.95C541.186 159.42 541.676 161.1 542.236 163.06C542.796 165.02 543.496 167.05 544.196 169.01C544.896 170.97 545.736 172.86 546.646 174.61C547.486 176.43 548.466 177.83 549.516 178.81C549.866 179.23 550.356 179.51 550.986 179.65C551.546 179.86 552.176 179.93 552.736 179.93C553.226 179.93 553.716 179.86 554.276 179.65C554.836 179.51 555.256 179.23 555.606 178.81C556.446 177.83 557.356 176.36 558.336 174.47C559.316 172.65 560.226 170.62 561.136 168.52C561.976 166.42 562.746 164.39 563.446 162.36C564.146 160.4 564.706 158.72 565.126 157.32C566.036 154.24 566.876 151.37 567.576 148.57L569.746 140.1C569.816 139.75 570.026 139.19 570.306 138.35L570.936 136.53C571.286 135.69 571.496 134.92 571.496 134.22ZM590.532 176.22C590.532 175.59 590.112 174.96 589.412 174.26C588.572 173.63 587.872 173.28 587.172 173.21C586.192 173.49 585.352 173.77 584.652 173.91C584.372 169.08 584.232 162.36 584.232 153.68C584.232 149.2 584.442 143.95 584.932 138.07C585.982 138 586.892 137.93 587.662 137.79C589.202 137.65 590.042 137.09 590.042 136.04C590.042 135.41 589.692 134.71 589.062 133.87C588.362 133.17 587.802 132.75 587.312 132.75C587.032 132.75 586.332 132.96 585.352 133.31C584.302 133.73 583.392 134.01 582.692 134.08C581.012 134.29 578.772 134.5 575.972 134.64C574.572 134.78 573.942 135.2 573.942 136.04C573.942 136.88 574.292 137.58 574.992 138.14C575.622 138.77 576.322 139.05 577.022 139.05C577.302 139.05 578.002 138.98 579.052 138.84C578.772 144.37 578.702 149.97 578.702 155.71L579.052 174.61C576.952 174.75 575.762 174.89 575.412 174.89C574.152 175.03 573.592 175.66 573.592 176.71C573.592 177.41 573.872 178.11 574.502 178.74C575.062 179.44 575.692 179.79 576.392 179.79C581.362 179.09 585.352 178.74 588.292 178.6C589.762 178.6 590.532 177.76 590.532 176.22ZM629.115 133.66C629.115 133.03 628.835 132.47 628.415 132.05C627.925 131.63 627.365 131.35 626.665 131.35C626.245 131.35 625.685 131.42 624.985 131.42C624.285 131.49 623.585 131.56 622.745 131.63L620.295 131.77L617.985 131.91L605.665 132.47C603.845 132.61 602.165 132.68 600.625 132.82C599.015 132.96 597.825 133.24 597.125 133.59C596.705 133.8 596.425 134.08 596.285 134.43C596.145 134.85 596.145 135.13 596.145 135.34C596.145 136.53 596.985 137.37 598.735 137.86C598.735 139.4 598.665 140.73 598.665 141.92L598.385 149.13C598.245 150.39 598.175 151.79 598.175 153.19C597.615 153.4 597.265 153.47 597.125 153.47H596.355C595.795 153.61 595.305 153.82 594.815 154.24C594.255 154.66 594.045 155.15 594.045 155.64C594.045 156.41 594.255 156.97 594.745 157.39C595.165 157.88 595.585 158.09 596.145 158.09H596.845C597.055 158.09 597.405 158.02 597.965 157.95C597.825 158.51 597.755 159.28 597.685 160.19C597.545 161.17 597.405 162.15 597.335 163.13L597.055 166.21C596.915 167.19 596.915 168.1 596.915 168.8C596.915 169.64 596.915 170.41 597.055 171.18C597.125 172.02 597.335 172.72 597.755 173.42C598.175 174.54 599.015 175.52 600.205 176.22C601.325 176.99 602.585 177.55 603.985 177.97C605.385 178.46 606.785 178.81 608.325 178.95C609.865 179.09 611.195 179.16 612.455 179.16C614.625 179.16 616.725 179.09 618.825 178.95C620.785 178.81 622.885 178.53 625.055 178.25L626.245 178.04L627.505 177.62C627.925 177.48 628.205 177.2 628.485 176.92C628.765 176.64 628.905 176.29 628.905 175.87C628.905 175.45 628.765 175.1 628.485 174.75C628.205 174.4 627.855 174.05 627.435 173.77C627.015 173.49 626.525 173.28 626.105 173.07C625.545 172.93 625.125 172.86 624.705 172.86C623.585 172.86 622.465 173 621.345 173.21C620.785 173.35 620.365 173.42 619.945 173.49C619.455 173.56 619.035 173.63 618.685 173.7C617.565 173.91 616.445 174.05 615.185 174.19C613.925 174.33 612.735 174.4 611.545 174.4C610.425 174.4 609.375 174.33 608.325 174.19C607.275 174.12 606.295 173.91 605.455 173.49C604.545 173.21 603.845 172.65 603.285 171.95C602.725 171.32 602.515 170.41 602.515 169.29C602.515 167.61 602.585 165.72 602.795 163.62L603.355 157.46C606.015 157.25 608.955 157.04 612.105 156.83C615.255 156.62 618.125 156.34 620.785 156.06C621.555 155.99 622.185 155.71 622.745 155.29C623.235 154.94 623.515 154.38 623.515 153.61C623.515 152.91 623.235 152.28 622.745 151.79C622.255 151.37 621.625 151.16 620.925 151.16C620.225 151.16 619.455 151.23 618.685 151.3L616.165 151.58L613.505 151.79L610.355 152.07L606.925 152.35L603.705 152.63C603.845 149.97 603.915 147.45 603.985 145.07L604.195 137.72C606.155 137.58 607.905 137.44 609.445 137.3C610.845 137.23 612.455 137.16 614.275 137.02C616.235 136.88 618.405 136.81 620.715 136.81C622.955 136.81 625.125 136.67 627.085 136.39C627.715 136.32 628.205 136.04 628.625 135.55C628.905 135.13 629.115 134.5 629.115 133.66ZM694.989 150.25C694.989 147.45 694.569 144.93 693.729 142.62C692.889 140.38 691.769 138.42 690.369 136.74C688.829 135.13 687.079 133.87 685.049 132.89C683.019 132.05 680.779 131.56 678.399 131.56C673.919 131.56 669.299 133.24 664.539 136.46C664.399 135.76 664.329 135.27 664.329 134.99C664.259 134.78 664.189 134.64 664.189 134.5C663.979 134.15 663.489 133.8 662.789 133.45C661.949 133.17 661.249 132.96 660.689 132.96C660.549 132.96 660.269 133.1 659.989 133.31C659.709 133.52 659.429 133.73 659.149 134.01C658.799 134.36 658.519 134.71 658.309 134.99C658.099 135.27 658.029 135.48 658.029 135.62C658.029 136.04 658.029 136.39 658.169 136.67C658.309 136.95 658.449 137.3 658.589 137.65C658.799 138.07 659.009 138.42 659.149 138.77C659.219 139.12 659.289 139.47 659.429 139.89L659.569 140.73C659.569 141.08 659.569 141.43 659.639 141.78C659.359 142.2 659.219 142.48 659.149 142.62C659.079 142.83 659.079 143.04 659.079 143.32C659.079 143.95 659.359 144.58 659.989 145.21L660.269 148.43L660.409 151.65V154.8C660.409 155.78 660.479 156.69 660.479 157.39C660.479 159.63 660.409 161.59 660.409 163.27C660.409 165.09 660.339 166.77 660.339 168.31L660.129 172.79L659.989 177.48C659.989 177.76 660.059 177.97 660.269 178.18C660.479 178.46 660.759 178.67 661.039 178.81C661.319 179.09 661.599 179.23 661.949 179.37C662.229 179.51 662.509 179.58 662.719 179.58C663.349 179.58 663.909 179.37 664.469 178.95C664.959 178.6 665.239 177.97 665.379 176.99C667.339 178.04 669.229 178.81 670.909 179.23C672.589 179.72 673.919 179.93 674.829 179.93C677.769 179.93 680.569 179.37 683.089 178.25C685.539 177.2 687.639 175.45 689.389 173.07C691.139 170.69 692.539 167.61 693.519 163.83C694.499 160.12 694.989 155.57 694.989 150.25ZM689.249 151.44C689.249 155.71 688.829 159.35 688.129 162.43C687.359 165.51 686.309 168.1 685.049 170.13C683.789 172.16 682.249 173.63 680.569 174.61C678.749 175.59 676.929 176.08 674.969 176.08C673.779 176.08 672.729 175.94 671.889 175.59C670.909 175.24 670.139 174.82 669.439 174.4C669.019 174.19 668.669 173.98 668.389 173.77C668.109 173.56 667.829 173.35 667.549 173.14C667.269 173 666.989 172.86 666.709 172.72C666.429 172.65 666.149 172.58 665.729 172.44V152L665.589 147.73C665.589 146.33 665.519 144.86 665.519 143.39C665.659 143.18 665.869 142.97 666.009 142.83L666.429 142.27C666.569 141.99 666.849 141.64 667.269 141.36L668.529 140.1C668.879 139.75 669.229 139.4 669.649 139.05C670.279 138.49 671.049 137.93 671.889 137.37C672.659 136.95 673.499 136.6 674.409 136.39C675.319 136.25 676.439 136.11 677.839 136.11C679.519 136.11 681.059 136.53 682.459 137.37C683.859 138.28 685.049 139.47 686.029 140.87C687.009 142.34 687.849 143.95 688.409 145.77C688.969 147.59 689.249 149.48 689.249 151.44ZM739.504 166.28C739.504 163.9 738.454 161.66 736.494 159.56C734.464 157.53 731.384 156.06 727.254 155.08C729.214 154.24 730.894 153.33 732.224 152.28C733.484 151.3 734.464 150.18 735.234 149.06C735.934 147.94 736.494 146.82 736.774 145.63C737.054 144.51 737.194 143.32 737.194 142.2C737.194 140.59 736.914 139.05 736.424 137.65C735.864 136.25 735.094 135.06 734.044 134.01C732.994 132.96 731.664 132.12 730.124 131.49C728.514 130.93 726.694 130.65 724.594 130.65C722.564 130.65 720.464 131.07 718.294 131.91C716.054 132.75 713.884 133.8 711.644 135.06C711.504 133.73 711.364 132.68 711.084 131.91C710.734 131.21 710.174 130.79 709.404 130.79C708.704 130.79 708.074 131 707.444 131.28C706.814 131.63 706.324 132.05 706.044 132.54L706.324 135.27L706.254 139.12C705.554 139.75 705.274 140.24 705.274 140.52C705.274 140.66 705.344 140.87 705.484 141.01C705.624 141.22 705.834 141.43 706.254 141.71V147.52C706.254 148.92 706.184 150.39 706.184 151.79V155.85C706.184 158.37 706.114 160.89 705.974 163.41C705.834 165.93 705.554 168.52 705.274 171.32C704.084 171.46 703.244 171.74 702.754 172.16C702.194 172.65 701.984 173.14 701.984 173.7C701.984 174.4 702.264 174.89 702.824 175.17C703.314 175.45 703.944 175.73 704.714 176.01V177.34C704.714 177.55 704.784 177.76 704.924 177.9C705.064 178.18 705.344 178.39 705.764 178.53C706.114 178.74 706.464 178.81 706.884 178.81C707.234 178.81 707.654 178.67 708.144 178.39C708.564 178.18 708.914 177.76 709.194 177.06C709.824 177.27 710.664 177.41 711.644 177.55C712.624 177.76 713.604 177.9 714.724 178.04C715.774 178.18 716.824 178.32 717.944 178.39C718.924 178.53 719.834 178.53 720.674 178.53C722.144 178.53 723.474 178.53 724.734 178.39C725.924 178.39 727.044 178.25 728.164 178.04C729.214 177.9 730.264 177.62 731.244 177.2C732.224 176.85 733.274 176.36 734.394 175.66C735.934 174.82 737.124 173.63 738.104 172.09C739.014 170.62 739.504 168.66 739.504 166.28ZM732.014 142.06C732.014 145.84 730.264 148.57 726.904 150.32C723.404 152.14 718.224 153.26 711.364 153.82L711.504 150.32V144.16C711.504 143.18 711.574 142.06 711.574 140.87C712.414 140.31 713.324 139.61 714.444 138.91C715.494 138.21 716.614 137.58 717.804 136.95C718.924 136.39 720.114 135.97 721.304 135.55C722.424 135.13 723.544 134.92 724.664 134.92C725.784 134.92 726.834 135.13 727.814 135.55C728.724 135.97 729.494 136.53 730.124 137.23C730.684 137.93 731.174 138.63 731.524 139.47C731.804 140.31 732.014 141.22 732.014 142.06ZM734.114 167.05C734.114 169.15 733.064 170.83 730.964 172.16C728.864 173.56 725.504 174.19 720.744 174.19C719.624 174.19 718.504 174.19 717.524 174.05C716.544 173.91 715.564 173.77 714.724 173.56C713.884 173.49 713.184 173.35 712.554 173.21L710.454 172.79C710.734 170.2 710.874 167.75 710.944 165.44C710.944 163.2 710.944 160.75 711.084 158.09H714.864C715.564 158.16 716.334 158.16 717.034 158.16H718.854C720.394 158.16 722.004 158.3 723.824 158.51C725.574 158.79 727.184 159.21 728.724 159.84C730.264 160.54 731.524 161.45 732.574 162.57C733.554 163.76 734.114 165.23 734.114 167.05Z" fill="white"/>
<path d="M209.842 137.684L202.217 133.98C203.497 128.621 204.145 123.255 204.145 118C204.145 112.669 203.508 107.298 202.249 102.004L209.842 98.3153C212.193 97.1731 213.875 95.3284 214.578 93.1215C215.28 90.9146 214.92 88.6095 213.562 86.6308L192.799 56.3688C191.441 54.3902 189.249 52.9746 186.626 52.3835C184.003 51.7924 181.264 52.0956 178.912 53.2382L171.313 56.9298C161.715 49.8243 150.419 44.3251 138.394 40.9035V33.5538C138.394 28.8372 133.834 25 128.228 25H86.7008C81.0955 25 76.5352 28.8372 76.5352 33.5538V40.9039C64.5745 44.3116 53.2937 49.8181 43.6598 56.9516L36.0166 53.2382C33.6647 52.0956 30.9252 51.792 28.3025 52.3835C25.6798 52.975 23.4879 54.3902 22.13 56.3688L1.36634 86.6308C0.0084762 88.6095 -0.35186 90.9146 0.350645 93.1215C1.05315 95.3284 2.73544 97.1731 5.08693 98.3153L12.7115 102.02C11.432 107.379 10.7835 112.745 10.7835 118C10.7835 123.33 11.4212 128.702 12.68 133.996L5.08736 137.684C0.232984 140.043 -1.4359 145.284 1.36634 149.369L22.13 179.631C24.9327 183.716 31.1618 185.12 36.0166 182.762L43.6148 179.07C53.2137 186.176 64.5096 191.675 76.5352 195.097V202.446C76.5352 207.163 81.0955 211 86.7008 211H128.228C133.834 211 138.394 207.163 138.394 202.446V195.096C150.355 191.688 161.636 186.182 171.27 179.049L178.912 182.762C183.766 185.12 189.996 183.716 192.799 179.631L213.563 149.369C216.365 145.284 214.696 140.043 209.842 137.684ZM207.943 146.639L187.179 176.901C186.166 178.379 183.913 178.886 182.157 178.033L172.47 173.328C171.24 172.73 169.689 172.875 168.646 173.688C158.743 181.394 146.828 187.209 134.19 190.504C132.831 190.858 131.905 191.915 131.905 193.111V202.446C131.905 204.152 130.256 205.54 128.228 205.54H86.7008C84.6733 205.54 83.0239 204.152 83.0239 202.446V193.112C83.0239 191.915 82.0978 190.858 80.7399 190.504C68.0239 187.189 56.0943 181.382 46.2397 173.71C45.625 173.231 44.8338 172.984 44.0357 172.984C43.4794 172.984 42.9201 173.104 42.4144 173.349L32.7723 178.033C31.016 178.886 28.7632 178.378 27.7496 176.901L6.98594 146.639C5.97242 145.162 6.57629 143.266 8.33169 142.413L17.966 137.732C19.1963 137.134 19.8214 135.933 19.5086 134.767C18.0244 129.232 17.2722 123.59 17.2722 118C17.2722 112.504 18.0357 106.868 19.5419 101.248C19.8542 100.082 19.2292 98.8809 17.9994 98.2836L8.33169 93.587C7.48124 93.1739 6.87304 92.5067 6.61869 91.7085C6.36476 90.9102 6.49497 90.0763 6.98594 89.3607L27.7496 59.0988C28.2406 58.3832 29.0335 57.871 29.9826 57.6574C30.9308 57.4434 31.9223 57.5533 32.7727 57.9664L42.459 62.6721C43.6901 63.2705 45.2405 63.1242 46.2838 62.3121C56.1873 54.6053 68.1017 48.7905 80.7399 45.496C82.0982 45.1419 83.0243 44.0848 83.0243 42.8884V33.5538C83.0243 31.8478 84.6738 30.4599 86.7012 30.4599H128.229C130.256 30.4599 131.906 31.8478 131.906 33.5538V42.8884C131.906 44.0848 132.832 45.1419 134.19 45.496C146.905 48.8105 158.835 54.618 168.69 62.2903C169.733 63.1027 171.284 63.2487 172.515 62.6506L182.157 57.9664C183.008 57.5533 183.999 57.4434 184.947 57.6574C185.896 57.8714 186.689 58.3832 187.18 59.0988L207.944 89.3607C208.435 90.0763 208.566 90.9102 208.311 91.7085C208.057 92.5067 207.449 93.1739 206.598 93.587L196.964 98.2676C195.734 98.8653 195.109 100.067 195.421 101.233C196.905 106.768 197.658 112.409 197.658 118C197.658 123.496 196.894 129.132 195.388 134.751C195.076 135.917 195.701 137.118 196.931 137.716L206.598 142.413C208.353 143.266 208.957 145.162 207.943 146.639Z" fill="white"/>
<path d="M107.464 62.8552C71.3279 62.8552 41.9291 87.5932 41.9291 118C41.9291 148.407 71.3279 173.145 107.464 173.145C143.601 173.145 173 148.407 173 118C173 87.5932 143.601 62.8552 107.464 62.8552ZM107.464 167.685C74.9062 167.685 48.4177 145.396 48.4177 118C48.4177 90.6038 74.9062 68.3151 107.464 68.3151C140.023 68.3151 166.511 90.6038 166.511 118C166.511 145.396 140.023 167.685 107.464 167.685Z" fill="white"/>
<path d="M119.577 103.622H107.465C105.673 103.622 104.22 104.845 104.22 106.352V129.648C104.22 131.155 105.673 132.378 107.465 132.378C109.256 132.378 110.709 131.155 110.709 129.648V123.642H119.577C126.136 123.642 131.473 119.152 131.473 113.632C131.473 108.113 126.136 103.622 119.577 103.622ZM119.577 118.182H110.709V109.082H119.577C122.558 109.082 124.984 111.123 124.984 113.632C124.984 116.141 122.558 118.182 119.577 118.182Z" fill="white"/>
<path d="M89.7384 105.394C89.2634 104.328 88.053 103.622 86.7008 103.622H83.2402C81.888 103.622 80.6772 104.328 80.2026 105.394L69.8208 128.689C69.1914 130.101 70.0418 131.674 71.7194 132.204C73.3969 132.734 75.2669 132.018 75.8963 130.607L77.7019 126.554H92.2387L94.0447 130.606C94.5331 131.702 95.7694 132.378 97.0827 132.378C97.4612 132.378 97.8462 132.322 98.2212 132.204C99.8987 131.675 100.749 130.101 100.12 128.689L89.7384 105.394ZM80.1352 121.094L84.9705 110.244L89.8058 121.094H80.1352Z" fill="white"/>
<path d="M138.61 103.622C136.818 103.622 135.366 104.845 135.366 106.352V129.648C135.366 131.155 136.818 132.378 138.61 132.378C140.402 132.378 141.854 131.155 141.854 129.648V106.352C141.854 104.845 140.402 103.622 138.61 103.622Z" fill="white"/>
<path d="M130.673 56.7765C132.925 57.3804 135.169 58.0818 137.344 58.8607C137.758 59.0092 138.189 59.0795 138.613 59.0795C139.874 59.0795 141.074 58.4563 141.6 57.4182C142.301 56.0311 141.534 54.4277 139.885 53.8373C137.524 52.9917 135.088 52.2303 132.643 51.5747C130.937 51.1168 129.111 51.9103 128.567 53.3466C128.023 54.7829 128.966 56.3186 130.673 56.7765Z" fill="white"/>
<path d="M40.3934 148.722C39.5352 147.399 37.564 146.911 35.9915 147.633C34.4187 148.355 33.839 150.014 34.6973 151.337C36.0434 153.414 37.5337 155.456 39.1264 157.408C39.7554 158.178 40.7706 158.592 41.8036 158.592C42.4365 158.592 43.0759 158.437 43.6373 158.113C45.1146 157.259 45.4896 155.56 44.4752 154.317C43.0075 152.518 41.6341 150.636 40.3934 148.722Z" fill="white"/>
<path d="M100.82 182.005C83.4353 180.744 66.9333 174.405 54.3544 164.154C53.0671 163.105 51.0132 163.133 49.767 164.216C48.5207 165.299 48.5531 167.028 49.8405 168.076C63.4883 179.198 81.3957 186.076 100.263 187.444C100.358 187.451 100.452 187.454 100.545 187.454C102.211 187.454 103.628 186.381 103.774 184.959C103.927 183.457 102.605 182.134 100.82 182.005Z" fill="white"/>
<path d="M154.15 60.4117C152.671 59.561 150.652 59.8806 149.641 61.1251C148.63 62.37 149.01 64.0687 150.489 64.9194C165.562 73.5871 176.465 86.4852 181.19 101.237C181.58 102.455 182.89 103.257 184.32 103.257C184.6 103.257 184.884 103.227 185.167 103.163C186.897 102.77 187.921 101.272 187.455 99.8164C182.328 83.808 170.5 69.814 154.15 60.4117Z" fill="white"/>
</svg>
